<?xml version="1.0" ?><svg viewBox="0 0 64 64" xmlns="http://www.w3.org/2000/svg"><defs><style>.cls-1{fill:#c1c8d1;}.cls-2{fill:#e6e9ed;}.cls-3{fill:#7fcdee;}.cls-4{fill:#b2e1f5;}.cls-5{fill:#fff;}.cls-6{fill:#758190;}.cls-7{fill:none;stroke:#000;stroke-linejoin:round;stroke-width:2px;}</style></defs><title/><g data-name="Layer 13" id="Layer_13"><rect class="cls-1" height="56" width="24" x="4" y="2"/><path class="cls-2" d="M4,49.647C15.807,42.183,24,25.9,24,7c0-1.689-.069-3.357-.2-5H4Z"/><rect class="cls-3" height="10" width="24" x="4" y="34"/><path class="cls-4" d="M17.712,34H4V44h6.738A44.406,44.406,0,0,0,17.712,34Z"/><rect class="cls-3" height="10" width="24" x="4" y="20"/><path class="cls-4" d="M22.649,20H4V30H19.583A57.02,57.02,0,0,0,22.649,20Z"/><rect class="cls-3" height="10" width="24" x="4" y="6"/><path class="cls-4" d="M24,7c0-.336-.015-.666-.02-1H4V16H23.346A63.8,63.8,0,0,0,24,7Z"/><rect class="cls-1" height="56" width="24" x="36" y="2"/><path class="cls-2" d="M36,49.647C47.807,42.183,56,25.9,56,7c0-1.689-.069-3.357-.2-5H36Z"/><rect class="cls-3" height="10" width="24" x="36" y="34"/><path class="cls-4" d="M49.712,34H36V44h6.738A44.406,44.406,0,0,0,49.712,34Z"/><rect class="cls-3" height="10" width="24" x="36" y="20"/><path class="cls-4" d="M54.649,20H36V30H51.583A57.02,57.02,0,0,0,54.649,20Z"/><rect class="cls-3" height="10" width="24" x="36" y="6"/><path class="cls-4" d="M56,7c0-.336-.015-.666-.02-1H36V16H55.346A63.8,63.8,0,0,0,56,7Z"/><path class="cls-5" d="M12,58V54a4,4,0,0,1,4-4h0a4,4,0,0,1,4,4v4Z"/><path class="cls-5" d="M44,58V54a4,4,0,0,1,4-4h0a4,4,0,0,1,4,4v4Z"/><rect class="cls-6" height="4" width="8" x="28" y="10"/><rect class="cls-6" height="4" width="8" x="28" y="24"/><rect class="cls-6" height="4" width="8" x="28" y="38"/><rect class="cls-6" height="4" width="60" x="2" y="58"/><rect class="cls-7" height="4" width="60" x="2" y="58"/><polyline class="cls-7" points="4 58 4 2 28 2 28 58"/><polyline class="cls-7" points="36 58 36 2 60 2 60 58"/><line class="cls-7" x1="4" x2="28" y1="6" y2="6"/><line class="cls-7" x1="4" x2="28" y1="16" y2="16"/><line class="cls-7" x1="4" x2="28" y1="20" y2="20"/><line class="cls-7" x1="4" x2="28" y1="30" y2="30"/><line class="cls-7" x1="4" x2="28" y1="34" y2="34"/><line class="cls-7" x1="4" x2="28" y1="44" y2="44"/><path class="cls-7" d="M12,58V54a4,4,0,0,1,4-4h0a4,4,0,0,1,4,4v4"/><line class="cls-7" x1="16" x2="16" y1="6" y2="16"/><line class="cls-7" x1="16" x2="16" y1="20" y2="30"/><line class="cls-7" x1="16" x2="16" y1="34" y2="44"/><line class="cls-7" x1="36" x2="60" y1="6" y2="6"/><line class="cls-7" x1="36" x2="60" y1="16" y2="16"/><line class="cls-7" x1="36" x2="60" y1="20" y2="20"/><line class="cls-7" x1="36" x2="60" y1="30" y2="30"/><line class="cls-7" x1="36" x2="60" y1="34" y2="34"/><line class="cls-7" x1="36" x2="60" y1="44" y2="44"/><path class="cls-7" d="M44,58V54a4,4,0,0,1,4-4h0a4,4,0,0,1,4,4v4"/><line class="cls-7" x1="48" x2="48" y1="6" y2="16"/><line class="cls-7" x1="48" x2="48" y1="20" y2="30"/><line class="cls-7" x1="48" x2="48" y1="34" y2="44"/><line class="cls-7" x1="28" x2="36" y1="42" y2="42"/><line class="cls-7" x1="28" x2="36" y1="38" y2="38"/><line class="cls-7" x1="28" x2="36" y1="28" y2="28"/><line class="cls-7" x1="28" x2="36" y1="24" y2="24"/><line class="cls-7" x1="28" x2="36" y1="14" y2="14"/><line class="cls-7" x1="28" x2="36" y1="10" y2="10"/></g></svg>