<?xml version="1.0" ?><svg fill="none" height="24" viewBox="0 0 24 24" width="24" xmlns="http://www.w3.org/2000/svg"><path d="M22 12C22 13.4222 21.7031 14.7751 21.1679 16M12 22C13.4222 22 14.7751 21.7031 16 21.1679C17.1534 20.664 18.1934 19.9487 19.0711 19.0711M2 12C2 10.5778 2.2969 9.22492 2.83209 8C3.33605 6.84656 4.0513 5.80656 4.92893 4.92893M12 2C10.5778 2 9.22492 2.2969 8 2.83209M8 21.1679C6.84656 20.664 5.80656 19.9487 4.92893 19.0711C4.0513 18.1934 3.33605 17.1534 2.83209 16M15.8321 3C16.9855 3.50396 18.0255 4.21922 18.9032 5.09685C19.7808 5.97447 20.496 7.01447 21 8.16792" stroke="black" stroke-linecap="round" stroke-linejoin="round" stroke-width="2"/><path d="M9 6.80269C7.2066 7.84012 6 9.77915 6 12C6 14.2208 7.2066 16.1599 9 17.1973M9 6.80269C9.88252 6.29218 10.9071 6 12 6C14.6124 6 16.8349 7.66962 17.6586 10M9 6.80269L10.603 8.51117C11.3484 9.30555 11.2382 10.5714 10.3667 11.225L9.77749 11.6669C8.96085 12.2794 9.07426 13.5371 9.98729 13.9936V13.9936C10.9064 14.4532 11.0136 15.7225 10.1846 16.3297L9 17.1973M9 17.1973C9.88252 17.7078 10.9071 18 12 18C13.792 18 15.4006 17.2144 16.5 15.9687M17.6586 10C17.8797 10.6256 18 11.2987 18 12C18 13.5217 17.4335 14.911 16.5 15.9687M17.6586 10L16.5576 10.3486C15.4474 10.7001 14.8711 11.9219 15.3059 13.0021L16.5 15.9687" stroke="black" stroke-linecap="round" stroke-linejoin="round" stroke-width="2"/></svg>